<svg id="Layer_1" data-name="Layer 1" xmlns="http://www.w3.org/2000/svg" viewBox="0 0 336.36 376.16"><defs><style>.cls-1{fill:#054c91;}.cls-2,.cls-7,.cls-8{fill:#fff;}.cls-3{fill:#749ac9;}.cls-4{fill:#284164;}.cls-5{fill:#f05722;}.cls-6{fill:#a93124;}.cls-7{font-size:36px;}.cls-7,.cls-8{font-family:SmgFlamaCond-Medium, SmgFlama Cond;}.cls-8{font-size:24px;}</style></defs><title>championschib_logo</title><g id="_Group_" data-name="&lt;Group&gt;"><g id="_Group_2" data-name="&lt;Group&gt;"><path id="_Path_" data-name="&lt;Path&gt;" class="cls-1" d="M210.86,63.19H61.35V241.5c0,18.61,60.7,155.56,149.51,155.56s149.51-137,149.51-155.56V63.19Z" transform="translate(-41.19 -20.9)"/><path id="_Path_2" data-name="&lt;Path&gt;" class="cls-2" d="M210.86,378.73c-21.34,0-54.54-10.56-91.5-60.87C94,283.36,80.67,248.12,79.68,241.06V81.52H342V241.06c-1,7.06-14.33,42.3-39.67,76.79-37,50.31-70.16,60.87-91.5,60.87Z" transform="translate(-41.19 -20.9)"/><path id="_Path_3" data-name="&lt;Path&gt;" class="cls-1" d="M210.86,368.25c-18.92,0-48.7-9.82-83.06-56.59-24.16-32.89-36.25-65.31-37.64-71.52V92H331.55V240.13c-1.38,6.2-13.47,38.62-37.64,71.52C259.55,358.43,229.78,368.25,210.86,368.25Z" transform="translate(-41.19 -20.9)"/><g id="_Group_3" data-name="&lt;Group&gt;"><path id="_Compound_Path_" data-name="&lt;Compound Path&gt;" class="cls-2" d="M210.86,192a82.3,82.3,0,1,1,82.3-82.3A82.4,82.4,0,0,1,210.86,192Z" transform="translate(-41.19 -20.9)"/><path id="_Path_4" data-name="&lt;Path&gt;" class="cls-3" d="M234.11,27.41a85.44,85.44,0,0,1,13.55,46.29c0,47.17-38.14,85.55-85,85.55A84.3,84.3,0,0,1,139.4,156a84.89,84.89,0,0,0,71.46,39.26c46.87,0,85-38.38,85-85.55A85.63,85.63,0,0,0,234.11,27.41Z" transform="translate(-41.19 -20.9)"/><path id="_Compound_Path_2" data-name="&lt;Compound Path&gt;" class="cls-4" d="M210.86,198.52a88.81,88.81,0,1,1,88.81-88.81A88.91,88.91,0,0,1,210.86,198.52Zm0-171.11a82.3,82.3,0,1,0,82.3,82.3A82.4,82.4,0,0,0,210.86,27.41Z" transform="translate(-41.19 -20.9)"/><path id="_Path_5" data-name="&lt;Path&gt;" class="cls-4" d="M194.85,113.71,216.61,143s35.52-10,35.52-11V96.45L219.36,82.94Z" transform="translate(-41.19 -20.9)"/><path id="_Path_6" data-name="&lt;Path&gt;" class="cls-4" d="M225.87,191.76c-11.42-8.34-22.14-21-22.14-21-11.34,3.5-34.23,0-34.23,0s.67,8.34,1.11,14.47a85.16,85.16,0,0,0,39.88,10A71.41,71.41,0,0,1,225.87,191.76Z" transform="translate(-41.19 -20.9)"/><path id="_Path_7" data-name="&lt;Path&gt;" class="cls-4" d="M148.65,141.06c.33-3.17,11.67-29.35,11.67-29.35-1.67-2.17-11.67-30.85-11.67-30.85l-21.25,10a86.1,86.1,0,0,0-.17,37l1.57.07C131.34,133.2,148.65,141.06,148.65,141.06Z" transform="translate(-41.19 -20.9)"/><path id="_Path_8" data-name="&lt;Path&gt;" class="cls-4" d="M170.66,52s24.18-1.33,35.19,3.17c0,0,14.18-17,20-19.35a76.23,76.23,0,0,0-15.61-11.67,85.17,85.17,0,0,0-37.84,9.1A96.75,96.75,0,0,0,170.66,52Z" transform="translate(-41.19 -20.9)"/><path id="_Path_9" data-name="&lt;Path&gt;" class="cls-4" d="M260.89,47.5S272.06,72,272.56,78c0,0,17,9.51,19.18,16.34a22.6,22.6,0,0,0,2-5.87A85.5,85.5,0,0,0,269,47,36.14,36.14,0,0,0,260.89,47.5Z" transform="translate(-41.19 -20.9)"/><path id="_Path_10" data-name="&lt;Path&gt;" class="cls-4" d="M293.23,132.9c-1.37-1.66-2.32-2.59-2.32-2.59-10.17,17-19.51,18.93-19.51,18.93-2.08,10.34-13.51,28.52-13.76,29.27-.12.37,3-1.74,6.27-1.67A85.64,85.64,0,0,0,293.23,132.9Z" transform="translate(-41.19 -20.9)"/></g><g id="_Group_4" data-name="&lt;Group&gt;"><polygon id="_Path_11" data-name="&lt;Path&gt;" class="cls-5" points="336.36 276.97 328.14 297.42 329.79 321 277.17 323.13 283.74 279.1 336.36 276.97"/><polygon id="_Path_12" data-name="&lt;Path&gt;" class="cls-5" points="6.57 279.88 8.62 300.18 0 323.91 51.32 324.46 57.89 280.44 6.57 279.88"/><polygon id="_Path_13" data-name="&lt;Path&gt;" class="cls-5" points="322.63 256.7 26.72 257.87 20.15 301.89 316.06 300.73 322.63 256.7"/><polygon id="_Path_14" data-name="&lt;Path&gt;" class="cls-6" points="20.15 301.89 51.32 324.46 54.71 301.76 20.15 301.89"/><polygon id="_Path_15" data-name="&lt;Path&gt;" class="cls-6" points="315.84 300.61 277.1 323.14 280.42 300.87 315.84 300.61"/></g></g></g><path class="cls-2" d="M201.79,262.1c-11.21,0-14.75-7.9-14.75-12.73s2.77-7.76,6.45-7.76,7,2.3,7,7.9h15.8c-.92,8-7.36,12.59-14.5,12.59m31.77-16a24.19,24.19,0,0,0,.31-3.46c0-5.36-2.61-12.43-5.38-18.33l-2.3-4.77c-1.54-3.22-3.07-5.91-3.07-8.75,0-2,1.15-3.45,3-3.45,2.37,0,3.37,1.69,3.37,5.46h4v-6.61a24,24,0,0,0-8.75-1.38c-9.21,0-17.27,3.84-17.27,14.28,0,8.83,8.21,17.42,8.91,27H211c-1.23-11.13-10.52-12.2-13.28-12.2-8.68,0-14.74,5.91-14.74,14.36,0,9.9,6.52,17.8,20.5,17.8,13.35,0,25.33-6.45,29.16-16.5h9.52v-3.45Z" transform="translate(-41.19 -20.9)"/><text class="cls-7" transform="translate(67.95 291.68)">CHAMPIONSCHIB</text><text class="cls-8" transform="translate(164.34 332.07)">II</text></svg>